<svg version="1.1" viewBox="0.0 0.0 377.9527559055118 377.9527559055118" fill="none" stroke="none" stroke-linecap="square" stroke-miterlimit="10" xmlns:xlink="http://www.w3.org/1999/xlink" xmlns="http://www.w3.org/2000/svg"><clipPath id="p.0"><path d="m0 0l377.95276 0l0 377.95276l-377.95276 0l0 -377.95276z" clip-rule="nonzero"/></clipPath><g clip-path="url(#p.0)"><path fill="#000000" fill-opacity="0.0" d="m0 0l377.95276 0l0 377.95276l-377.95276 0z" fill-rule="evenodd"/><path fill="#1155cc" d="m101.087845 190.70987l0 0c0 -47.800613 38.75006 -86.55068 86.55069 -86.55068l0 0c22.954666 0 44.969177 9.118706 61.200577 25.350105c16.231415 16.2314 25.350128 38.24591 25.350128 61.200577l0 0c0 47.80063 -38.750076 86.55069 -86.550705 86.55069l0 0c-47.80063 0 -86.55069 -38.75006 -86.55069 -86.55069z" fill-rule="evenodd"/><path fill="#1155cc" d="m180.89894 65.56609l13.479202 0l0 38.593094l-13.479202 0z" fill-rule="evenodd"/><path stroke="#1155cc" stroke-width="1.0" stroke-linejoin="round" stroke-linecap="butt" d="m180.89894 65.56609l13.479202 0l0 38.593094l-13.479202 0z" fill-rule="evenodd"/><path fill="#1155cc" d="m170.68312 72.81412l0 0c0 -9.364216 7.591202 -16.955418 16.955414 -16.955418l0 0c4.4968567 0 8.80954 1.7863693 11.989304 4.9661293c3.1797485 3.1797562 4.9661255 7.4924316 4.9661255 11.989288l0 0c0 9.364227 -7.591202 16.95543 -16.95543 16.95543l0 0c-9.364212 0 -16.955414 -7.591202 -16.955414 -16.95543z" fill-rule="evenodd"/><path stroke="#1155cc" stroke-width="1.0" stroke-linejoin="round" stroke-linecap="butt" d="m170.68312 72.81412l0 0c0 -9.364216 7.591202 -16.955418 16.955414 -16.955418l0 0c4.4968567 0 8.80954 1.7863693 11.989304 4.9661293c3.1797485 3.1797562 4.9661255 7.4924316 4.9661255 11.989288l0 0c0 9.364227 -7.591202 16.95543 -16.95543 16.95543l0 0c-9.364212 0 -16.955414 -7.591202 -16.955414 -16.95543z" fill-rule="evenodd"/><path fill="#1155cc" d="m257.88605 91.57399l10.606781 8.316673l-23.81192 30.368904l-10.606796 -8.316673z" fill-rule="evenodd"/><path stroke="#1155cc" stroke-width="1.0" stroke-linejoin="round" stroke-linecap="butt" d="m257.88605 91.57399l10.606781 8.316673l-23.81192 30.368904l-10.606796 -8.316673z" fill-rule="evenodd"/><path fill="#1155cc" d="m245.3752 90.974304l0 0c5.777725 -7.3687057 16.435013 -8.658447 23.803726 -2.880722l0 0c3.5385742 2.774559 5.830017 6.8411713 6.37027 11.305237c0.54022217 4.4640656 -0.71499634 8.9599 -3.489563 12.498474l0 0c-5.77771 7.3687057 -16.435013 8.658455 -23.80371 2.8807297l0 0c-7.3687134 -5.777725 -8.658447 -16.435013 -2.880722 -23.803719z" fill-rule="evenodd"/><path stroke="#1155cc" stroke-width="1.0" stroke-linejoin="round" stroke-linecap="butt" d="m245.3752 90.974304l0 0c5.777725 -7.3687057 16.435013 -8.658447 23.803726 -2.880722l0 0c3.5385742 2.774559 5.830017 6.8411713 6.37027 11.305237c0.54022217 4.4640656 -0.71499634 8.9599 -3.489563 12.498474l0 0c-5.77771 7.3687057 -16.435013 8.658455 -23.80371 2.8807297l0 0c-7.3687134 -5.777725 -8.658447 -16.435013 -2.880722 -23.803719z" fill-rule="evenodd"/><path fill="#1155cc" d="m307.9401 218.68265l-3.4884033 13.019562l-37.27707 -9.9879l3.4884033 -13.019562z" fill-rule="evenodd"/><path stroke="#1155cc" stroke-width="1.0" stroke-linejoin="round" stroke-linecap="butt" d="m307.9401 218.68265l-3.4884033 13.019562l-37.27707 -9.9879l3.4884033 -13.019562z" fill-rule="evenodd"/><path fill="#1155cc" d="m303.5831 206.93939l0 0c9.044891 2.423462 14.412628 11.720398 11.989166 20.765305l0 0c-1.1637878 4.343521 -4.005371 8.046814 -7.899597 10.295227c-3.8942566 2.2483978 -8.522186 2.8577423 -12.865692 1.6939545l0 0c-9.044922 -2.423462 -14.412659 -11.720413 -11.989197 -20.765305l0 0c2.423462 -9.044907 11.720398 -14.412643 20.76532 -11.9891815z" fill-rule="evenodd"/><path stroke="#1155cc" stroke-width="1.0" stroke-linejoin="round" stroke-linecap="butt" d="m303.5831 206.93939l0 0c9.044891 2.423462 14.412628 11.720398 11.989166 20.765305l0 0c-1.1637878 4.343521 -4.005371 8.046814 -7.899597 10.295227c-3.8942566 2.2483978 -8.522186 2.8577423 -12.865692 1.6939545l0 0c-9.044922 -2.423462 -14.412659 -11.720413 -11.989197 -20.765305l0 0c2.423462 -9.044907 11.720398 -14.412643 20.76532 -11.9891815z" fill-rule="evenodd"/><path fill="#1155cc" d="m304.45056 154.69257l3.4884033 13.019562l-37.27707 9.9878845l-3.4884033 -13.019562z" fill-rule="evenodd"/><path stroke="#1155cc" stroke-width="1.0" stroke-linejoin="round" stroke-linecap="butt" d="m304.45056 154.69257l3.4884033 13.019562l-37.27707 9.9878845l-3.4884033 -13.019562z" fill-rule="evenodd"/><path fill="#1155cc" d="m294.80582 146.7009l0 0c9.044922 -2.423462 18.341858 2.944275 20.76532 11.989166l0 0c1.1637878 4.343521 0.55444336 8.971451 -1.6939697 12.865692c-2.248413 3.8942566 -5.9516907 6.73584 -10.295227 7.8996124l0 0c-9.044891 2.423462 -18.341827 -2.944275 -20.76529 -11.989166l0 0c-2.423462 -9.044907 2.944275 -18.341843 11.989166 -20.765305z" fill-rule="evenodd"/><path stroke="#1155cc" stroke-width="1.0" stroke-linejoin="round" stroke-linecap="butt" d="m294.80582 146.7009l0 0c9.044922 -2.423462 18.341858 2.944275 20.76532 11.989166l0 0c1.1637878 4.343521 0.55444336 8.971451 -1.6939697 12.865692c-2.248413 3.8942566 -5.9516907 6.73584 -10.295227 7.8996124l0 0c-9.044891 2.423462 -18.341827 -2.944275 -20.76529 -11.989166l0 0c-2.423462 -9.044907 2.944275 -18.341843 11.989166 -20.765305z" fill-rule="evenodd"/><path fill="#1155cc" d="m269.25534 278.59164l-9.531128 9.531158l-27.289185 -27.289185l9.531143 -9.531143z" fill-rule="evenodd"/><path stroke="#1155cc" stroke-width="1.0" stroke-linejoin="round" stroke-linecap="butt" d="m269.25534 278.59164l-9.531128 9.531158l-27.289185 -27.289185l9.531143 -9.531143z" fill-rule="evenodd"/><path fill="#1155cc" d="m271.35388 266.24295l0 0c6.6214294 6.62146 6.6214294 17.356934 0 23.978363l0 0c-3.1797485 3.1797485 -7.4923706 4.966095 -11.989197 4.966095c-4.496811 0 -8.809448 -1.7863464 -11.989166 -4.966095l0 0c-6.6214447 -6.6214294 -6.6214447 -17.356903 0 -23.978363l0 0c6.6214294 -6.6214294 17.356903 -6.6214294 23.978363 0z" fill-rule="evenodd"/><path stroke="#1155cc" stroke-width="1.0" stroke-linejoin="round" stroke-linecap="butt" d="m271.35388 266.24295l0 0c6.6214294 6.62146 6.6214294 17.356934 0 23.978363l0 0c-3.1797485 3.1797485 -7.4923706 4.966095 -11.989197 4.966095c-4.496811 0 -8.809448 -1.7863464 -11.989166 -4.966095l0 0c-6.6214447 -6.6214294 -6.6214447 -17.356903 0 -23.978363l0 0c6.6214294 -6.6214294 17.356903 -6.6214294 23.978363 0z" fill-rule="evenodd"/><path fill="#1155cc" d="m121.05276 290.8239l-11.681076 -6.7247925l19.254097 -33.444763l11.681076 6.7247925z" fill-rule="evenodd"/><path stroke="#1155cc" stroke-width="1.0" stroke-linejoin="round" stroke-linecap="butt" d="m121.05276 290.8239l-11.681076 -6.7247925l19.254097 -33.444763l11.681076 6.7247925z" fill-rule="evenodd"/><path fill="#1155cc" d="m133.52184 289.63943l0 0c-4.671814 8.115051 -15.037598 10.906311 -23.152634 6.2345276l0 0c-3.8969803 -2.2434998 -6.743126 -5.9431458 -7.912323 -10.285126c-1.1691971 -4.3419495 -0.5656662 -8.970551 1.6778107 -12.867523l0 0c4.671814 -8.115021 15.037598 -10.906311 23.152634 -6.234497l0 0c8.115036 4.671814 10.906311 15.037598 6.2345123 23.152618z" fill-rule="evenodd"/><path stroke="#1155cc" stroke-width="1.0" stroke-linejoin="round" stroke-linecap="butt" d="m133.52184 289.63943l0 0c-4.671814 8.115051 -15.037598 10.906311 -23.152634 6.2345276l0 0c-3.8969803 -2.2434998 -6.743126 -5.9431458 -7.912323 -10.285126c-1.1691971 -4.3419495 -0.5656662 -8.970551 1.6778107 -12.867523l0 0c4.671814 -8.115021 15.037598 -10.906311 23.152634 -6.234497l0 0c8.115036 4.671814 10.906311 15.037598 6.2345123 23.152618z" fill-rule="evenodd"/><path fill="#1155cc" d="m194.3794 312.01358l-13.479202 0l0 -38.59308l13.479202 0z" fill-rule="evenodd"/><path stroke="#1155cc" stroke-width="1.0" stroke-linejoin="round" stroke-linecap="butt" d="m194.3794 312.01358l-13.479202 0l0 -38.59308l13.479202 0z" fill-rule="evenodd"/><path fill="#1155cc" d="m204.59521 304.76556l0 0c0 9.364227 -7.591202 16.955414 -16.95543 16.955414l0 0c-4.4968567 0 -8.809525 -1.786377 -11.989288 -4.9661255c-3.1797638 -3.1797485 -4.9661255 -7.4924316 -4.9661255 -11.989288l0 0c0 -9.364227 7.591202 -16.955414 16.955414 -16.955414l0 0c9.364227 0 16.95543 7.5911865 16.95543 16.955414z" fill-rule="evenodd"/><path stroke="#1155cc" stroke-width="1.0" stroke-linejoin="round" stroke-linecap="butt" d="m204.59521 304.76556l0 0c0 9.364227 -7.591202 16.955414 -16.95543 16.955414l0 0c-4.4968567 0 -8.809525 -1.786377 -11.989288 -4.9661255c-3.1797638 -3.1797485 -4.9661255 -7.4924316 -4.9661255 -11.989288l0 0c0 -9.364227 7.591202 -16.955414 16.955414 -16.955414l0 0c9.364227 0 16.95543 7.5911865 16.95543 16.955414z" fill-rule="evenodd"/><path fill="#1155cc" d="m76.330894 235.3665l-5.57769 -12.271469l35.135147 -15.969818l5.5776978 12.271469z" fill-rule="evenodd"/><path stroke="#1155cc" stroke-width="1.0" stroke-linejoin="round" stroke-linecap="butt" d="m76.330894 235.3665l-5.57769 -12.271469l35.135147 -15.969818l5.5776978 12.271469z" fill-rule="evenodd"/><path fill="#1155cc" d="m87.15681 241.66776l0 0c-8.525185 3.8749084 -18.577454 0.1051178 -22.45237 -8.420059l0 0c-1.8607979 -4.0939484 -2.0190735 -8.759399 -0.44000244 -12.970047c1.5790634 -4.2106323 4.7661285 -7.621521 8.860069 -9.48233l0 0c8.525185 -3.8749084 18.577454 -0.1051178 22.45237 8.420059l0 0c3.874916 8.525192 0.10512543 18.577469 -8.420067 22.452377z" fill-rule="evenodd"/><path stroke="#1155cc" stroke-width="1.0" stroke-linejoin="round" stroke-linecap="butt" d="m87.15681 241.66776l0 0c-8.525185 3.8749084 -18.577454 0.1051178 -22.45237 -8.420059l0 0c-1.8607979 -4.0939484 -2.0190735 -8.759399 -0.44000244 -12.970047c1.5790634 -4.2106323 4.7661285 -7.621521 8.860069 -9.48233l0 0c8.525185 -3.8749084 18.577454 -0.1051178 22.45237 8.420059l0 0c3.874916 8.525192 0.10512543 18.577469 -8.420067 22.452377z" fill-rule="evenodd"/><path fill="#1155cc" d="m72.788025 157.79573l3.5167236 -13.012833l37.257774 10.068939l-3.5167313 13.012833z" fill-rule="evenodd"/><path stroke="#1155cc" stroke-width="1.0" stroke-linejoin="round" stroke-linecap="butt" d="m72.788025 157.79573l3.5167236 -13.012833l37.257774 10.068939l-3.5167313 13.012833z" fill-rule="evenodd"/><path fill="#1155cc" d="m77.119965 169.54909l0 0c-9.040222 -2.4431152 -14.388222 -11.752213 -11.945099 -20.792435l0 0c1.173233 -4.341263 4.022972 -8.0386505 7.92231 -10.278793c3.8993378 -2.2401428 8.528862 -2.8395233 12.870125 -1.6662903l0 0c9.040222 2.4431152 14.388222 11.752213 11.945099 20.792435l0 0c-2.4431305 9.040207 -11.75222 14.388214 -20.792435 11.945084z" fill-rule="evenodd"/><path stroke="#1155cc" stroke-width="1.0" stroke-linejoin="round" stroke-linecap="butt" d="m77.119965 169.54909l0 0c-9.040222 -2.4431152 -14.388222 -11.752213 -11.945099 -20.792435l0 0c1.173233 -4.341263 4.022972 -8.0386505 7.92231 -10.278793c3.8993378 -2.2401428 8.528862 -2.8395233 12.870125 -1.6662903l0 0c9.040222 2.4431152 14.388222 11.752213 11.945099 20.792435l0 0c-2.4431305 9.040207 -11.75222 14.388214 -20.792435 11.945084z" fill-rule="evenodd"/><path fill="#1155cc" d="m105.952736 100.71318l10.113449 -8.911102l25.513893 28.956398l-10.113449 8.911095z" fill-rule="evenodd"/><path stroke="#1155cc" stroke-width="1.0" stroke-linejoin="round" stroke-linecap="butt" d="m105.952736 100.71318l10.113449 -8.911102l25.513893 28.956398l-10.113449 8.911095z" fill-rule="evenodd"/><path fill="#1155cc" d="m103.079475 112.90505l0 0c-6.1906815 -7.0259705 -5.51355 -17.740196 1.5124283 -23.930878l0 0c3.373993 -2.9728775 7.790764 -4.483673 12.278671 -4.2000427c4.487915 0.283638 8.679337 2.3384705 11.652206 5.7124634l0 0c6.190689 7.025978 5.51355 17.740196 -1.5124207 23.930885l0 0c-7.025978 6.1906815 -17.740196 5.51355 -23.930885 -1.5124283z" fill-rule="evenodd"/><path stroke="#1155cc" stroke-width="1.0" stroke-linejoin="round" stroke-linecap="butt" d="m103.079475 112.90505l0 0c-6.1906815 -7.0259705 -5.51355 -17.740196 1.5124283 -23.930878l0 0c3.373993 -2.9728775 7.790764 -4.483673 12.278671 -4.2000427c4.487915 0.283638 8.679337 2.3384705 11.652206 5.7124634l0 0c6.190689 7.025978 5.51355 17.740196 -1.5124207 23.930885l0 0c-7.025978 6.1906815 -17.740196 5.51355 -23.930885 -1.5124283z" fill-rule="evenodd"/><path fill="#e06666" d="m-0.0010963255 188.80635l0 0c0 -104.277054 84.53326 -188.8103 188.8103 -188.8103l0 0c50.075607 0 98.10025 19.892458 133.50906 55.301258c35.408783 35.408802 55.30124 83.43344 55.30124 133.50905l0 0c0 104.277054 -84.53323 188.81029 -188.8103 188.81029l0 0c-104.27705 0 -188.8103 -84.53323 -188.8103 -188.81029zm308.4095 93.72255c47.396576 -60.482635 42.17856 -146.83029 -12.156433 -201.1653c-54.335007 -54.335 -140.68266 -59.553 -201.16531 -12.156441zm-239.19836 -187.44513c-47.396557 60.48266 -42.17856 146.83029 12.156448 201.16531c54.335007 54.33499 140.68265 59.55301 201.1653 12.156464z" fill-rule="evenodd"/></g></svg>