<svg version="1.1" viewBox="0.0 0.0 1889.763779527559 377.9527559055118" fill="none" stroke="none" stroke-linecap="square" stroke-miterlimit="10" xmlns:xlink="http://www.w3.org/1999/xlink" xmlns="http://www.w3.org/2000/svg"><clipPath id="p.0"><path d="m0 0l1889.7638 0l0 377.95276l-1889.7638 0l0 -377.95276z" clip-rule="nonzero"/></clipPath><g clip-path="url(#p.0)"><path fill="#000000" fill-opacity="0.0" d="m0 0l1889.7638 0l0 377.95276l-1889.7638 0z" fill-rule="evenodd"/><path fill="#1155cc" d="m101.087845 190.70987l0 0c0 -47.800613 38.75006 -86.55068 86.55069 -86.55068l0 0c22.954666 0 44.969177 9.118706 61.200577 25.350105c16.231415 16.2314 25.350128 38.24591 25.350128 61.200577l0 0c0 47.80063 -38.750076 86.55069 -86.550705 86.55069l0 0c-47.80063 0 -86.55069 -38.75006 -86.55069 -86.55069z" fill-rule="evenodd"/><path fill="#1155cc" d="m180.89894 65.56609l13.479202 0l0 38.593094l-13.479202 0z" fill-rule="evenodd"/><path stroke="#1155cc" stroke-width="1.0" stroke-linejoin="round" stroke-linecap="butt" d="m180.89894 65.56609l13.479202 0l0 38.593094l-13.479202 0z" fill-rule="evenodd"/><path fill="#1155cc" d="m170.68312 72.81412l0 0c0 -9.364216 7.591202 -16.955418 16.955414 -16.955418l0 0c4.4968567 0 8.80954 1.7863693 11.989304 4.9661293c3.1797485 3.1797562 4.9661255 7.4924316 4.9661255 11.989288l0 0c0 9.364227 -7.591202 16.95543 -16.95543 16.95543l0 0c-9.364212 0 -16.955414 -7.591202 -16.955414 -16.95543z" fill-rule="evenodd"/><path stroke="#1155cc" stroke-width="1.0" stroke-linejoin="round" stroke-linecap="butt" d="m170.68312 72.81412l0 0c0 -9.364216 7.591202 -16.955418 16.955414 -16.955418l0 0c4.4968567 0 8.80954 1.7863693 11.989304 4.9661293c3.1797485 3.1797562 4.9661255 7.4924316 4.9661255 11.989288l0 0c0 9.364227 -7.591202 16.95543 -16.95543 16.95543l0 0c-9.364212 0 -16.955414 -7.591202 -16.955414 -16.95543z" fill-rule="evenodd"/><path fill="#1155cc" d="m257.88605 91.57399l10.606781 8.316673l-23.81192 30.368904l-10.606796 -8.316673z" fill-rule="evenodd"/><path stroke="#1155cc" stroke-width="1.0" stroke-linejoin="round" stroke-linecap="butt" d="m257.88605 91.57399l10.606781 8.316673l-23.81192 30.368904l-10.606796 -8.316673z" fill-rule="evenodd"/><path fill="#1155cc" d="m245.3752 90.974304l0 0c5.777725 -7.3687057 16.435013 -8.658447 23.803726 -2.880722l0 0c3.5385742 2.774559 5.830017 6.8411713 6.37027 11.305237c0.54022217 4.4640656 -0.71499634 8.9599 -3.489563 12.498474l0 0c-5.77771 7.3687057 -16.435013 8.658455 -23.80371 2.8807297l0 0c-7.3687134 -5.777725 -8.658447 -16.435013 -2.880722 -23.803719z" fill-rule="evenodd"/><path stroke="#1155cc" stroke-width="1.0" stroke-linejoin="round" stroke-linecap="butt" d="m245.3752 90.974304l0 0c5.777725 -7.3687057 16.435013 -8.658447 23.803726 -2.880722l0 0c3.5385742 2.774559 5.830017 6.8411713 6.37027 11.305237c0.54022217 4.4640656 -0.71499634 8.9599 -3.489563 12.498474l0 0c-5.77771 7.3687057 -16.435013 8.658455 -23.80371 2.8807297l0 0c-7.3687134 -5.777725 -8.658447 -16.435013 -2.880722 -23.803719z" fill-rule="evenodd"/><path fill="#1155cc" d="m307.9401 218.68265l-3.4884033 13.019562l-37.27707 -9.9879l3.4884033 -13.019562z" fill-rule="evenodd"/><path stroke="#1155cc" stroke-width="1.0" stroke-linejoin="round" stroke-linecap="butt" d="m307.9401 218.68265l-3.4884033 13.019562l-37.27707 -9.9879l3.4884033 -13.019562z" fill-rule="evenodd"/><path fill="#1155cc" d="m303.5831 206.93939l0 0c9.044891 2.423462 14.412628 11.720398 11.989166 20.765305l0 0c-1.1637878 4.343521 -4.005371 8.046814 -7.899597 10.295227c-3.8942566 2.2483978 -8.522186 2.8577423 -12.865692 1.6939545l0 0c-9.044922 -2.423462 -14.412659 -11.720413 -11.989197 -20.765305l0 0c2.423462 -9.044907 11.720398 -14.412643 20.76532 -11.9891815z" fill-rule="evenodd"/><path stroke="#1155cc" stroke-width="1.0" stroke-linejoin="round" stroke-linecap="butt" d="m303.5831 206.93939l0 0c9.044891 2.423462 14.412628 11.720398 11.989166 20.765305l0 0c-1.1637878 4.343521 -4.005371 8.046814 -7.899597 10.295227c-3.8942566 2.2483978 -8.522186 2.8577423 -12.865692 1.6939545l0 0c-9.044922 -2.423462 -14.412659 -11.720413 -11.989197 -20.765305l0 0c2.423462 -9.044907 11.720398 -14.412643 20.76532 -11.9891815z" fill-rule="evenodd"/><path fill="#1155cc" d="m304.45056 154.69257l3.4884033 13.019562l-37.27707 9.9878845l-3.4884033 -13.019562z" fill-rule="evenodd"/><path stroke="#1155cc" stroke-width="1.0" stroke-linejoin="round" stroke-linecap="butt" d="m304.45056 154.69257l3.4884033 13.019562l-37.27707 9.9878845l-3.4884033 -13.019562z" fill-rule="evenodd"/><path fill="#1155cc" d="m294.80582 146.7009l0 0c9.044922 -2.423462 18.341858 2.944275 20.76532 11.989166l0 0c1.1637878 4.343521 0.55444336 8.971451 -1.6939697 12.865692c-2.248413 3.8942566 -5.9516907 6.73584 -10.295227 7.8996124l0 0c-9.044891 2.423462 -18.341827 -2.944275 -20.76529 -11.989166l0 0c-2.423462 -9.044907 2.944275 -18.341843 11.989166 -20.765305z" fill-rule="evenodd"/><path stroke="#1155cc" stroke-width="1.0" stroke-linejoin="round" stroke-linecap="butt" d="m294.80582 146.7009l0 0c9.044922 -2.423462 18.341858 2.944275 20.76532 11.989166l0 0c1.1637878 4.343521 0.55444336 8.971451 -1.6939697 12.865692c-2.248413 3.8942566 -5.9516907 6.73584 -10.295227 7.8996124l0 0c-9.044891 2.423462 -18.341827 -2.944275 -20.76529 -11.989166l0 0c-2.423462 -9.044907 2.944275 -18.341843 11.989166 -20.765305z" fill-rule="evenodd"/><path fill="#1155cc" d="m269.25534 278.59164l-9.531128 9.531158l-27.289185 -27.289185l9.531143 -9.531143z" fill-rule="evenodd"/><path stroke="#1155cc" stroke-width="1.0" stroke-linejoin="round" stroke-linecap="butt" d="m269.25534 278.59164l-9.531128 9.531158l-27.289185 -27.289185l9.531143 -9.531143z" fill-rule="evenodd"/><path fill="#1155cc" d="m271.35388 266.24295l0 0c6.6214294 6.62146 6.6214294 17.356934 0 23.978363l0 0c-3.1797485 3.1797485 -7.4923706 4.966095 -11.989197 4.966095c-4.496811 0 -8.809448 -1.7863464 -11.989166 -4.966095l0 0c-6.6214447 -6.6214294 -6.6214447 -17.356903 0 -23.978363l0 0c6.6214294 -6.6214294 17.356903 -6.6214294 23.978363 0z" fill-rule="evenodd"/><path stroke="#1155cc" stroke-width="1.0" stroke-linejoin="round" stroke-linecap="butt" d="m271.35388 266.24295l0 0c6.6214294 6.62146 6.6214294 17.356934 0 23.978363l0 0c-3.1797485 3.1797485 -7.4923706 4.966095 -11.989197 4.966095c-4.496811 0 -8.809448 -1.7863464 -11.989166 -4.966095l0 0c-6.6214447 -6.6214294 -6.6214447 -17.356903 0 -23.978363l0 0c6.6214294 -6.6214294 17.356903 -6.6214294 23.978363 0z" fill-rule="evenodd"/><path fill="#1155cc" d="m121.05276 290.8239l-11.681076 -6.7247925l19.254097 -33.444763l11.681076 6.7247925z" fill-rule="evenodd"/><path stroke="#1155cc" stroke-width="1.0" stroke-linejoin="round" stroke-linecap="butt" d="m121.05276 290.8239l-11.681076 -6.7247925l19.254097 -33.444763l11.681076 6.7247925z" fill-rule="evenodd"/><path fill="#1155cc" d="m133.52184 289.63943l0 0c-4.671814 8.115051 -15.037598 10.906311 -23.152634 6.2345276l0 0c-3.8969803 -2.2434998 -6.743126 -5.9431458 -7.912323 -10.285126c-1.1691971 -4.3419495 -0.5656662 -8.970551 1.6778107 -12.867523l0 0c4.671814 -8.115021 15.037598 -10.906311 23.152634 -6.234497l0 0c8.115036 4.671814 10.906311 15.037598 6.2345123 23.152618z" fill-rule="evenodd"/><path stroke="#1155cc" stroke-width="1.0" stroke-linejoin="round" stroke-linecap="butt" d="m133.52184 289.63943l0 0c-4.671814 8.115051 -15.037598 10.906311 -23.152634 6.2345276l0 0c-3.8969803 -2.2434998 -6.743126 -5.9431458 -7.912323 -10.285126c-1.1691971 -4.3419495 -0.5656662 -8.970551 1.6778107 -12.867523l0 0c4.671814 -8.115021 15.037598 -10.906311 23.152634 -6.234497l0 0c8.115036 4.671814 10.906311 15.037598 6.2345123 23.152618z" fill-rule="evenodd"/><path fill="#1155cc" d="m194.3794 312.01358l-13.479202 0l0 -38.59308l13.479202 0z" fill-rule="evenodd"/><path stroke="#1155cc" stroke-width="1.0" stroke-linejoin="round" stroke-linecap="butt" d="m194.3794 312.01358l-13.479202 0l0 -38.59308l13.479202 0z" fill-rule="evenodd"/><path fill="#1155cc" d="m204.59521 304.76556l0 0c0 9.364227 -7.591202 16.955414 -16.95543 16.955414l0 0c-4.4968567 0 -8.809525 -1.786377 -11.989288 -4.9661255c-3.1797638 -3.1797485 -4.9661255 -7.4924316 -4.9661255 -11.989288l0 0c0 -9.364227 7.591202 -16.955414 16.955414 -16.955414l0 0c9.364227 0 16.95543 7.5911865 16.95543 16.955414z" fill-rule="evenodd"/><path stroke="#1155cc" stroke-width="1.0" stroke-linejoin="round" stroke-linecap="butt" d="m204.59521 304.76556l0 0c0 9.364227 -7.591202 16.955414 -16.95543 16.955414l0 0c-4.4968567 0 -8.809525 -1.786377 -11.989288 -4.9661255c-3.1797638 -3.1797485 -4.9661255 -7.4924316 -4.9661255 -11.989288l0 0c0 -9.364227 7.591202 -16.955414 16.955414 -16.955414l0 0c9.364227 0 16.95543 7.5911865 16.95543 16.955414z" fill-rule="evenodd"/><path fill="#1155cc" d="m76.330894 235.3665l-5.57769 -12.271469l35.135147 -15.969818l5.5776978 12.271469z" fill-rule="evenodd"/><path stroke="#1155cc" stroke-width="1.0" stroke-linejoin="round" stroke-linecap="butt" d="m76.330894 235.3665l-5.57769 -12.271469l35.135147 -15.969818l5.5776978 12.271469z" fill-rule="evenodd"/><path fill="#1155cc" d="m87.15681 241.66776l0 0c-8.525185 3.8749084 -18.577454 0.1051178 -22.45237 -8.420059l0 0c-1.8607979 -4.0939484 -2.0190735 -8.759399 -0.44000244 -12.970047c1.5790634 -4.2106323 4.7661285 -7.621521 8.860069 -9.48233l0 0c8.525185 -3.8749084 18.577454 -0.1051178 22.45237 8.420059l0 0c3.874916 8.525192 0.10512543 18.577469 -8.420067 22.452377z" fill-rule="evenodd"/><path stroke="#1155cc" stroke-width="1.0" stroke-linejoin="round" stroke-linecap="butt" d="m87.15681 241.66776l0 0c-8.525185 3.8749084 -18.577454 0.1051178 -22.45237 -8.420059l0 0c-1.8607979 -4.0939484 -2.0190735 -8.759399 -0.44000244 -12.970047c1.5790634 -4.2106323 4.7661285 -7.621521 8.860069 -9.48233l0 0c8.525185 -3.8749084 18.577454 -0.1051178 22.45237 8.420059l0 0c3.874916 8.525192 0.10512543 18.577469 -8.420067 22.452377z" fill-rule="evenodd"/><path fill="#1155cc" d="m72.788025 157.79573l3.5167236 -13.012833l37.257774 10.068939l-3.5167313 13.012833z" fill-rule="evenodd"/><path stroke="#1155cc" stroke-width="1.0" stroke-linejoin="round" stroke-linecap="butt" d="m72.788025 157.79573l3.5167236 -13.012833l37.257774 10.068939l-3.5167313 13.012833z" fill-rule="evenodd"/><path fill="#1155cc" d="m77.119965 169.54909l0 0c-9.040222 -2.4431152 -14.388222 -11.752213 -11.945099 -20.792435l0 0c1.173233 -4.341263 4.022972 -8.0386505 7.92231 -10.278793c3.8993378 -2.2401428 8.528862 -2.8395233 12.870125 -1.6662903l0 0c9.040222 2.4431152 14.388222 11.752213 11.945099 20.792435l0 0c-2.4431305 9.040207 -11.75222 14.388214 -20.792435 11.945084z" fill-rule="evenodd"/><path stroke="#1155cc" stroke-width="1.0" stroke-linejoin="round" stroke-linecap="butt" d="m77.119965 169.54909l0 0c-9.040222 -2.4431152 -14.388222 -11.752213 -11.945099 -20.792435l0 0c1.173233 -4.341263 4.022972 -8.0386505 7.92231 -10.278793c3.8993378 -2.2401428 8.528862 -2.8395233 12.870125 -1.6662903l0 0c9.040222 2.4431152 14.388222 11.752213 11.945099 20.792435l0 0c-2.4431305 9.040207 -11.75222 14.388214 -20.792435 11.945084z" fill-rule="evenodd"/><path fill="#1155cc" d="m105.952736 100.71318l10.113449 -8.911102l25.513893 28.956398l-10.113449 8.911095z" fill-rule="evenodd"/><path stroke="#1155cc" stroke-width="1.0" stroke-linejoin="round" stroke-linecap="butt" d="m105.952736 100.71318l10.113449 -8.911102l25.513893 28.956398l-10.113449 8.911095z" fill-rule="evenodd"/><path fill="#1155cc" d="m103.079475 112.90505l0 0c-6.1906815 -7.0259705 -5.51355 -17.740196 1.5124283 -23.930878l0 0c3.373993 -2.9728775 7.790764 -4.483673 12.278671 -4.2000427c4.487915 0.283638 8.679337 2.3384705 11.652206 5.7124634l0 0c6.190689 7.025978 5.51355 17.740196 -1.5124207 23.930885l0 0c-7.025978 6.1906815 -17.740196 5.51355 -23.930885 -1.5124283z" fill-rule="evenodd"/><path stroke="#1155cc" stroke-width="1.0" stroke-linejoin="round" stroke-linecap="butt" d="m103.079475 112.90505l0 0c-6.1906815 -7.0259705 -5.51355 -17.740196 1.5124283 -23.930878l0 0c3.373993 -2.9728775 7.790764 -4.483673 12.278671 -4.2000427c4.487915 0.283638 8.679337 2.3384705 11.652206 5.7124634l0 0c6.190689 7.025978 5.51355 17.740196 -1.5124207 23.930885l0 0c-7.025978 6.1906815 -17.740196 5.51355 -23.930885 -1.5124283z" fill-rule="evenodd"/><path fill="#e06666" d="m-0.0010963255 188.80635l0 0c0 -104.277054 84.53326 -188.8103 188.8103 -188.8103l0 0c50.075607 0 98.10025 19.892458 133.50906 55.301258c35.408783 35.408802 55.30124 83.43344 55.30124 133.50905l0 0c0 104.277054 -84.53323 188.81029 -188.8103 188.81029l0 0c-104.27705 0 -188.8103 -84.53323 -188.8103 -188.81029zm308.4095 93.72255c47.396576 -60.482635 42.17856 -146.83029 -12.156433 -201.1653c-54.335007 -54.335 -140.68266 -59.553 -201.16531 -12.156441zm-239.19836 -187.44513c-47.396557 60.48266 -42.17856 146.83029 12.156448 201.16531c54.335007 54.33499 140.68265 59.55301 201.1653 12.156464z" fill-rule="evenodd"/><path fill="#000000" fill-opacity="0.0" d="m377.61942 0.31496063l1512.1575 0l0 377.6063l-1512.1575 0z" fill-rule="evenodd"/><path fill="#000000" d="m524.9384 164.33684l0 10.09375l-11.390625 2.921875q3.125 4.890625 3.125 10.9375q0 11.71875 -8.1719055 18.265625q-8.171875 6.546875 -22.6875 6.546875l-3.59375 -0.203125l-2.921875 -0.328125q-3.0625 2.34375 -3.0625 5.21875q0 4.296875 10.9375 4.296875l12.375 0q11.96875 0 18.25003 5.140625q6.28125 5.140625 6.28125 15.09375q0 12.765625 -10.640625 19.79689q-10.6406555 7.03125 -30.56253 7.03125q-15.234375 0 -23.28125 -5.3125q-8.03125 -5.296875 -8.03125 -14.875015q0 -6.578125 4.09375 -11.0q4.109375 -4.421875 12.046875 -6.3125q-3.0625 -1.296875 -5.34375 -4.25q-2.265625 -2.96875 -2.265625 -6.296875q0 -4.171875 2.40625 -6.9375q2.40625 -2.765625 6.96875 -5.4375q-5.734375 -2.46875 -9.09375 -7.9375q-3.34375 -5.46875 -3.34375 -12.890625q0 -11.90625 7.75 -18.421875q7.75 -6.515625 22.125 -6.515625q3.0625 0 7.265625 0.5625q4.203125 0.546875 5.375 0.8125l25.390656 0zm-56.18753 83.0625q0 4.109375 3.9375 6.453125q3.9375 2.3437653 11.03125 2.3437653q10.6875 0 16.734375 -2.9375153q6.0625 -2.921875 6.0625 -8.0q0 -4.109375 -3.59375 -5.671875q-3.578125 -1.5625 -11.0625 -1.5625l-10.28125 0q-5.46875 0 -9.15625 2.5625q-3.671875 2.578125 -3.671875 6.8125zm7.21875 -59.234375q0 5.921875 2.703125 9.375q2.703125 3.453125 8.234375 3.453125q5.609375 0 8.203125 -3.453125q2.609375 -3.453125 2.609375 -9.375q0 -13.15625 -10.8125 -13.15625q-10.9375 0 -10.9375 13.15625zm60.088226 -42.640625q0 -9.703125 10.8125 -9.703125q10.8125 0 10.8125 9.703125q0 4.625 -2.703125 7.203125q-2.703125 2.5625 -8.109375 2.5625q-10.8125 0 -10.8125 -9.765625zm20.703125 91.59375l-19.84375 0l0 -72.78125l19.84375 0l0 72.78125zm38.157288 0l-27.734375 -72.78125l20.765625 0l14.0625 41.46875q2.34375 7.875 2.9375 14.90625l0.390625 0q0.3125 -6.25 2.921875 -14.90625l14.0 -41.46875l20.765625 0l-27.734375 72.78125l-20.375 0zm88.67151 -60.03125q-6.3125 0 -9.90625 4.015625q-3.578125 4.0 -4.09375 11.359375l27.859375 0q-0.125 -7.359375 -3.84375 -11.359375q-3.703125 -4.015625 -10.015625 -4.015625zm2.796875 61.328125q-17.578125 0 -27.484375 -9.6875q-9.890625 -9.703125 -9.890625 -27.484375q0 -18.296875 9.140625 -28.28125q9.15625 -10.0 25.296875 -10.0q15.4375 0 24.03125 8.796875q8.59375 8.78125 8.59375 24.28125l0 9.640625l-46.9375 0q0.328125 8.453125 5.015625 13.21875q4.6875 4.75 13.140625 4.75q6.578125 0 12.4375 -1.359375q5.859375 -1.375 12.234375 -4.375l0 15.359375q-5.203125 2.609375 -11.125 3.875q-5.921875 1.265625 -14.453125 1.265625z" fill-rule="nonzero"/><path fill="#1155cc" d="m797.37836 237.11809l-19.84375 0l0 -42.515625q0 -7.875 -2.640625 -11.8125q-2.640625 -3.9375 -8.296875 -3.9375q-7.625 0 -11.078125 5.609375q-3.453125 5.59375 -3.453125 18.40625l0 34.25l-19.84375 0l0 -72.78125l15.15625 0l2.671875 9.3125l1.109375 0q2.9375 -5.015625 8.46875 -7.84375q5.53125 -2.84375 12.6875 -2.84375q16.34375 0 22.140625 10.6875l1.75 0q2.9375 -5.078125 8.625 -7.875q5.703125 -2.8125 12.859375 -2.8125q12.375 0 18.71875 6.359375q6.34375 6.34375 6.34375 20.34375l0 47.453125l-19.921875 0l0 -42.515625q0 -7.875 -2.640625 -11.8125q-2.625 -3.9375 -8.296875 -3.9375q-7.28125 0 -10.90625 5.21875q-3.609375 5.203125 -3.609375 16.53125l0 36.515625zm95.90381 -60.03125q-6.312561 0 -9.906311 4.015625q-3.578125 4.0 -4.09375 11.359375l27.859436 0q-0.125 -7.359375 -3.84375 -11.359375q-3.703125 -4.015625 -10.015625 -4.015625zm2.796875 61.328125q-17.578186 0 -27.484436 -9.6875q-9.890625 -9.703125 -9.890625 -27.484375q0 -18.296875 9.140625 -28.28125q9.15625 -10.0 25.296936 -10.0q15.4375 0 24.03125 8.796875q8.59375 8.78125 8.59375 24.28125l0 9.640625l-46.93756 0q0.328125 8.453125 5.015625 13.21875q4.6875 4.75 13.140686 4.75q6.578125 0 12.4375 -1.359375q5.859375 -1.375 12.234375 -4.375l0 15.359375q-5.203125 2.609375 -11.125 3.875q-5.921875 1.265625 -14.453125 1.265625z" fill-rule="nonzero"/><path fill="#000000" d="m964.96136 238.41496q-12.828125 0 -20.15625 -9.953125q-7.328125 -9.96875 -7.328125 -27.609375q0 -17.90625 7.453125 -27.890625q7.453125 -10.0 20.546875 -10.0q13.734375 0 20.96875 10.6875l0.640625 0q-1.5 -8.140625 -1.5 -14.515625l0 -23.3125l19.921875 0l0 101.296875l-15.234375 0l-3.828125 -9.4375l-0.859375 0q-6.765625 10.734375 -20.625 10.734375zm6.953125 -15.8125q7.625 0 11.171875 -4.421875q3.546875 -4.4375 3.875 -15.046875l0 -2.140625q0 -11.71875 -3.625 -16.796875q-3.609375 -5.078125 -11.734375 -5.078125q-6.640625 0 -10.328125 5.625q-3.671875 5.625 -3.671875 16.375q0 10.734375 3.703125 16.109375q3.71875 5.375 10.609375 5.375zm53.512268 -77.078125q0 -9.703125 10.8125 -9.703125q10.8125 0 10.8125 9.703125q0 4.625 -2.703125 7.203125q-2.703125 2.5625 -8.109375 2.5625q-10.8125 0 -10.8125 -9.765625zm20.703125 91.59375l-19.84375 0l0 -72.78125l19.84375 0l0 72.78125zm71.6261 -21.609375q0 11.1875 -7.78125 17.046875q-7.78125 5.859375 -23.28125 5.859375q-7.9375 0 -13.546875 -1.078125q-5.59375 -1.0625 -10.46875 -3.140625l0 -16.40625q5.53125 2.59375 12.453125 4.359375q6.9375 1.75 12.21875 1.75q10.796875 0 10.796875 -6.25q0 -2.34375 -1.4375 -3.796875q-1.421875 -1.46875 -4.9375 -3.328125q-3.515625 -1.859375 -9.375 -4.328125q-8.390625 -3.515625 -12.34375 -6.5q-3.9375 -3.0 -5.734375 -6.875q-1.78125 -3.875 -1.78125 -9.546875q0 -9.703125 7.515625 -15.0q7.53125 -5.3125 21.328125 -5.3125q13.15625 0 25.59375 5.734375l-6.0 14.328125q-5.46875 -2.34375 -10.21875 -3.84375q-4.75 -1.5 -9.703125 -1.5q-8.78125 0 -8.78125 4.75q0 2.671875 2.828125 4.625q2.828125 1.953125 12.40625 5.796875q8.53125 3.453125 12.5 6.453125q3.96875 2.984375 5.859375 6.890625q1.890625 3.90625 1.890625 9.3125zm46.148438 7.09375q5.203125 0 12.5 -2.28125l0 14.78125q-7.421875 3.3125 -18.234375 3.3125q-11.90625 0 -17.34375 -6.015625q-5.4375 -6.015625 -5.4375 -18.0625l0 -35.09375l-9.5 0l0 -8.40625l10.9375 -6.625l5.71875 -15.375l12.703125 0l0 15.5l20.375 0l0 14.90625l-20.375 0l0 35.09375q0 4.234375 2.375 6.25q2.375 2.015625 6.28125 2.015625zm73.43787 14.515625l-3.84375 -9.890625l-0.515625 0q-5.015625 6.3125 -10.328125 8.75q-5.296875 2.4375 -13.828125 2.4375q-10.484375 0 -16.515625 -5.984375q-6.015625 -5.984375 -6.015625 -17.0625q0 -11.578125 8.109375 -17.078125q8.109375 -5.5 24.453125 -6.09375l12.625 -0.390625l0 -3.1875q0 -11.0625 -11.328125 -11.0625q-8.71875 0 -20.515625 5.265625l-6.5625 -13.40625q12.5625 -6.578125 27.859375 -6.578125q14.640625 0 22.453125 6.390625q7.8125 6.375 7.8125 19.390625l0 48.5l-13.859375 0zm-5.859375 -33.71875l-7.6875 0.25q-8.65625 0.265625 -12.890625 3.140625q-4.234375 2.859375 -4.234375 8.71875q0 8.390625 9.640625 8.390625q6.90625 0 11.03125 -3.96875q4.140625 -3.96875 4.140625 -10.546875l0 -5.984375zm107.34314 33.71875l-19.84375 0l0 -42.515625q0 -7.875 -2.8125 -11.8125q-2.796875 -3.9375 -8.90625 -3.9375q-8.34375 0 -12.0625 5.5625q-3.703125 5.5625 -3.703125 18.453125l0 34.25l-19.84375 0l0 -72.78125l15.15625 0l2.671875 9.3125l1.109375 0q3.328125 -5.28125 9.140625 -7.984375q5.828125 -2.703125 13.25 -2.703125q12.703125 0 19.265625 6.875q6.578125 6.859375 6.578125 19.828125l0 47.453125zm50.00183 1.296875q-33.984375 0 -33.984375 -37.296875q0 -18.5625 9.25 -28.359375q9.25 -9.796875 26.5 -9.796875q12.625 0 22.65625 4.953125l-5.859375 15.359375q-4.6875 -1.890625 -8.734375 -3.09375q-4.03125 -1.203125 -8.0625 -1.203125q-15.5 0 -15.5 22.015625q0 21.34375 15.5 21.34375q5.71875 0 10.59375 -1.53125q4.890625 -1.53125 9.78125 -4.78125l0 17.0q-4.8125 3.046875 -9.734375 4.21875q-4.921875 1.171875 -12.40625 1.171875zm69.14575 -61.328125q-6.3125 0 -9.90625 4.015625q-3.578125 4.0 -4.09375 11.359375l27.859375 0q-0.125 -7.359375 -3.84375 -11.359375q-3.703125 -4.015625 -10.015625 -4.015625zm2.796875 61.328125q-17.578125 0 -27.484375 -9.6875q-9.890625 -9.703125 -9.890625 -27.484375q0 -18.296875 9.140625 -28.28125q9.15625 -10.0 25.296875 -10.0q15.4375 0 24.03125 8.796875q8.59375 8.78125 8.59375 24.28125l0 9.640625l-46.9375 0q0.328125 8.453125 5.015625 13.21875q4.6875 4.75 13.140625 4.75q6.578125 0 12.4375 -1.359375q5.859375 -1.375 12.234375 -4.375l0 15.359375q-5.203125 2.609375 -11.125 3.875q-5.921875 1.265625 -14.453125 1.265625z" fill-rule="nonzero"/><path fill="#1155cc" d="m1503.7933 227.80559q0 -5.46875 2.921875 -8.265625q2.9375 -2.796875 8.546875 -2.796875q5.40625 0 8.359375 2.875q2.96875 2.859375 2.96875 8.1875q0 5.140625 -3.0 8.109375q-3.0 2.953125 -8.328125 2.953125q-5.46875 0 -8.46875 -2.890625q-3.0 -2.890625 -3.0 -8.171875zm70.378784 10.609375q-33.984375 0 -33.984375 -37.296875q0 -18.5625 9.25 -28.359375q9.25 -9.796875 26.5 -9.796875q12.625 0 22.65625 4.953125l-5.859375 15.359375q-4.6875 -1.890625 -8.734375 -3.09375q-4.03125 -1.203125 -8.0625 -1.203125q-15.5 0 -15.5 22.015625q0 21.34375 15.5 21.34375q5.71875 0 10.59375 -1.53125q4.890625 -1.53125 9.78125 -4.78125l0 17.0q-4.8125 3.046875 -9.734375 4.21875q-4.921875 1.171875 -12.40625 1.171875zm54.817627 -37.8125q0 10.796875 3.546875 16.34375q3.546875 5.53125 11.5625 5.53125q7.9375 0 11.421875 -5.5q3.484375 -5.515625 3.484375 -16.375q0 -10.8125 -3.515625 -16.21875q-3.515625 -5.40625 -11.53125 -5.40625q-7.9375 0 -11.453125 5.375q-3.515625 5.375 -3.515625 16.25zm50.328125 0q0 17.765625 -9.375 27.796875q-9.375 10.015625 -26.109375 10.015625q-10.484375 0 -18.5 -4.578125q-8.0 -4.59375 -12.296875 -13.1875q-4.296875 -8.59375 -4.296875 -20.046875q0 -17.84375 9.3125 -27.734375q9.3125 -9.90625 26.171875 -9.90625q10.484375 0 18.484375 4.5625q8.015625 4.5625 12.3125 13.09375q4.296875 8.515625 4.296875 19.984375zm81.56445 36.515625l-19.84375 0l0 -42.515625q0 -7.875 -2.640625 -11.8125q-2.640625 -3.9375 -8.296875 -3.9375q-7.625 0 -11.078125 5.609375q-3.453125 5.59375 -3.453125 18.40625l0 34.25l-19.84375 0l0 -72.78125l15.15625 0l2.671875 9.3125l1.109375 0q2.9375 -5.015625 8.46875 -7.84375q5.53125 -2.84375 12.6875 -2.84375q16.34375 0 22.140625 10.6875l1.75 0q2.9375 -5.078125 8.625 -7.875q5.703125 -2.8125 12.859375 -2.8125q12.375 0 18.71875 6.359375q6.34375 6.34375 6.34375 20.34375l0 47.453125l-19.921875 0l0 -42.515625q0 -7.875 -2.640625 -11.8125q-2.625 -3.9375 -8.296875 -3.9375q-7.28125 0 -10.90625 5.21875q-3.609375 5.203125 -3.609375 16.53125l0 36.515625z" fill-rule="nonzero"/></g></svg>